<svg width="101" height="101" viewBox="0 0 101 101" fill="none" xmlns="http://www.w3.org/2000/svg">
<path id="Vector 23 (Stroke)" fill-rule="evenodd" clip-rule="evenodd" d="M4.642 0.822648C8.72891 -1.15489 13.6451 0.555096 15.6226 4.642L51.1145 77.9919L74.7174 50.8924H54.5923C50.0521 50.8924 46.3716 47.2118 46.3716 42.6716C46.3716 38.1314 50.0521 34.4508 54.5923 34.4508H92.7791C96.0013 34.4508 98.9265 36.3333 100.261 39.2661C101.596 42.1988 101.095 45.641 98.9782 48.0708L55.3362 98.1784C53.5225 100.261 50.7845 101.293 48.0474 100.927C45.3103 100.561 42.9398 98.8455 41.7371 96.3598L0.822648 11.8033C-1.15489 7.71639 0.555096 2.80018 4.642 0.822648Z" fill="#FB923C"/>
</svg>
